<svg width="current" height="current" viewBox="0 0 22 22" fill="none" xmlns="http://www.w3.org/2000/svg">
<path d="M16.95 3H7.05C4.813 3 3 4.813 3 7.05V16.95C3 19.1865 4.813 21 7.05 21H16.95C19.187 21 21 19.1865 21 16.95V7.05C21 4.813 19.187 3 16.95 3Z" fill="url(#paint0_linear_1_431)"/>
<path opacity="0.05" d="M6.15002 15.4884C5.46102 15.4884 4.90002 14.9314 4.90002 14.2464C4.90002 13.5614 5.46102 13.0044 6.15002 13.0044H8.04902L10.4835 8.84991L9.77202 7.63541C9.60302 7.34641 9.55652 7.00991 9.64102 6.68691C9.72552 6.36391 9.93102 6.09291 10.219 5.92491C10.411 5.81291 10.629 5.75391 10.85 5.75391C11.2925 5.75391 11.706 5.99091 11.929 6.37241L11.9325 6.37841L11.9355 6.37291C12.158 5.99141 12.5715 5.75441 13.0145 5.75441C13.236 5.75441 13.454 5.81391 13.646 5.92591C14.241 6.27491 14.441 7.04241 14.092 7.63691L10.9465 13.0049H12.6105L12.757 13.1524C12.868 13.2639 12.9695 13.3904 13.0685 13.5394L13.167 13.7044C13.4115 14.1599 13.466 14.6634 13.3265 15.1314L13.221 15.4884H6.15002Z" fill="black"/>
<path opacity="0.07" d="M6.15002 15.2384C5.59852 15.2384 5.15002 14.7934 5.15002 14.2464C5.15002 13.6994 5.59852 13.2544 6.15002 13.2544H8.19202L10.773 8.84992L9.98702 7.50892C9.85202 7.27842 9.81452 7.00892 9.88252 6.74992C9.95002 6.49142 10.114 6.27492 10.3445 6.14042C10.498 6.05092 10.6725 6.00342 10.8495 6.00342C11.2035 6.00342 11.5345 6.19292 11.713 6.49792L11.932 6.87242L12.151 6.49842C12.329 6.19342 12.66 6.00392 13.014 6.00392C13.191 6.00392 13.3655 6.05142 13.519 6.14092C13.995 6.42042 14.1545 7.03442 13.8755 7.50992L10.51 13.2544H12.506L12.579 13.3279C12.678 13.4274 12.7695 13.5414 12.859 13.6769L12.9515 13.8319C13.1605 14.2224 13.207 14.6549 13.0865 15.0599L13.0335 15.2384H6.15002Z" fill="black"/>
<path d="M12.651 13.815C12.577 13.703 12.495 13.598 12.402 13.5045H10.074L13.6605 7.38351C13.87 7.02601 13.75 6.56651 13.393 6.35701C13.035 6.14751 12.5755 6.26751 12.367 6.62501L11.932 7.36701L11.497 6.62451C11.288 6.26701 10.8285 6.14751 10.471 6.35651C10.1135 6.56551 9.99352 7.02501 10.203 7.38251L11.063 8.85001L8.33552 13.5045H6.15002C5.73552 13.5045 5.40002 13.837 5.40002 14.2465C5.40002 14.656 5.73552 14.9885 6.15002 14.9885H12.847C12.944 14.662 12.9175 14.2975 12.7365 13.9595L12.651 13.815Z" fill="white"/>
<path opacity="0.05" d="M7.25001 18.0895C7.02851 18.0895 6.81051 18.03 6.61851 17.9175C6.33051 17.7485 6.12551 17.4775 6.04101 17.1545C5.95701 16.8315 6.00351 16.4945 6.17251 16.2065L6.52901 15.5975L6.74901 15.5535C6.92951 15.518 7.09801 15.5 7.26401 15.5L7.32301 15.5005C7.86351 15.5165 8.35301 15.7475 8.70601 16.1505L8.94401 16.4215L8.32951 17.4715C8.10551 17.853 7.69251 18.0895 7.25001 18.0895Z" fill="black"/>
<path opacity="0.07" d="M7.25003 17.8395C7.07303 17.8395 6.89803 17.792 6.74503 17.702C6.51503 17.567 6.35053 17.35 6.28303 17.0915C6.21553 16.833 6.25253 16.5635 6.38803 16.333L6.68803 15.821L6.79803 15.799C6.96253 15.766 7.11503 15.75 7.26403 15.75L7.32003 15.7505C7.78653 15.7645 8.21153 15.965 8.51803 16.315L8.63703 16.4505L8.11353 17.345C7.93503 17.65 7.60403 17.8395 7.25003 17.8395Z" fill="black"/>
<path d="M7.313 16.0009C7.1545 15.9964 6.999 16.0139 6.847 16.0444L6.6035 16.4599C6.394 16.8174 6.514 17.2769 6.8715 17.4864C6.9905 17.5564 7.1215 17.5894 7.25 17.5894C7.5075 17.5894 7.7585 17.4564 7.8975 17.2189L8.33 16.4804C8.0865 16.2024 7.735 16.0134 7.315 16.0009H7.313Z" fill="white"/>
<path opacity="0.05" d="M16.6145 18.0895C16.172 18.0895 15.7585 17.8525 15.5355 17.4715L12.522 12.329L12.5135 12.303C12.305 11.6585 12.346 10.994 12.6205 10.4065L13.455 8.97754L15.815 13.005H17.85C18.539 13.005 19.1 13.562 19.1 14.247C19.1 14.932 18.539 15.489 17.85 15.489H17.2705L17.6915 16.2075C17.8605 16.4955 17.907 16.832 17.823 17.1555C17.739 17.479 17.5335 17.7495 17.2455 17.9185C17.0545 18.03 16.8365 18.0895 16.6145 18.0895Z" fill="black"/>
<path opacity="0.07" d="M16.6145 17.8394C16.2605 17.8394 15.9295 17.6504 15.751 17.3454L12.751 12.2264L12.7425 12.2004C12.562 11.6414 12.5985 11.0419 12.8465 10.5124L13.4545 9.47192L15.671 13.2544H17.85C18.4015 13.2544 18.85 13.6994 18.85 14.2464C18.85 14.7934 18.4015 15.2384 17.85 15.2384H16.8345L17.476 16.3334C17.6115 16.5639 17.6485 16.8334 17.581 17.0919C17.5135 17.3504 17.3495 17.5674 17.119 17.7024C16.9665 17.7919 16.792 17.8394 16.6145 17.8394Z" fill="black"/>
<path d="M17.85 13.5046H15.5285L13.455 9.96655L13.0735 10.6181C12.8515 11.0931 12.8215 11.6301 12.981 12.1236L15.967 17.2191C16.1065 17.4571 16.357 17.5896 16.6145 17.5896C16.743 17.5896 16.874 17.5566 16.993 17.4866C17.3505 17.2771 17.47 16.8176 17.2605 16.4601L16.398 14.9886H17.85C18.2645 14.9886 18.6 14.6561 18.6 14.2466C18.6 13.8371 18.2645 13.5046 17.85 13.5046Z" fill="white"/>
<defs>
<linearGradient id="paint0_linear_1_431" x1="12" y1="2.3085" x2="12" y2="20.048" gradientUnits="userSpaceOnUse">
<stop stop-color="#33BEF0"/>
<stop offset="1" stop-color="#0A85D9"/>
</linearGradient>
</defs>
</svg>
