<svg width="current" height="current" viewBox="0 0 24 24" fill="none" xmlns="http://www.w3.org/2000/svg">
<path d="M6.74398 2.006C5.39698 1.254 3.80248 1.889 3.22498 3.1615L12.063 12L16.57 7.493L6.74398 2.006Z" fill="url(#paint0_linear_1_430)"/>
<path d="M16.57 16.507L12.063 12L3.22498 20.8385C3.80298 22.1115 5.39748 22.746 6.74398 21.9945L16.57 16.507Z" fill="url(#paint1_linear_1_430)"/>
<path d="M20.7095 14.1964C21.5695 13.7164 21.9995 12.8584 22 11.9999C21.9995 11.1414 21.5695 10.2829 20.7095 9.80342L16.57 7.49292L12.063 11.9999L16.57 16.5069L20.7095 14.1964Z" fill="url(#paint2_linear_1_430)"/>
<path d="M3.225 3.16162C3.084 3.47412 3 3.82612 3 4.20412V19.7936C3 20.1741 3.082 20.5251 3.225 20.8386L12.062 11.9986L3.225 3.16162Z" fill="url(#paint3_linear_1_430)"/>
<defs>
<linearGradient id="paint0_linear_1_430" x1="9.05097" y1="1.622" x2="12.6485" y2="17.37" gradientUnits="userSpaceOnUse">
<stop stop-color="#35AB4A"/>
<stop offset="0.297" stop-color="#31A145"/>
<stop offset="0.798" stop-color="#288739"/>
<stop offset="1" stop-color="#237A33"/>
</linearGradient>
<linearGradient id="paint1_linear_1_430" x1="9.57898" y1="11.931" x2="10.597" y2="33.4655" gradientUnits="userSpaceOnUse">
<stop stop-color="#F14E5D"/>
<stop offset="0.499" stop-color="#EA3D4F"/>
<stop offset="1" stop-color="#E12138"/>
</linearGradient>
<linearGradient id="paint2_linear_1_430" x1="16.4715" y1="7.44942" x2="18.2705" y2="21.8059" gradientUnits="userSpaceOnUse">
<stop stop-color="#FFD844"/>
<stop offset="0.519" stop-color="#FFC63F"/>
<stop offset="1" stop-color="#FFB03A"/>
</linearGradient>
<linearGradient id="paint3_linear_1_430" x1="6.9265" y1="2.95062" x2="7.786" y2="21.4056" gradientUnits="userSpaceOnUse">
<stop offset="0.003" stop-color="#0090E6"/>
<stop offset="1" stop-color="#0065A0"/>
</linearGradient>
</defs>
</svg>
